<svg xmlns="http://www.w3.org/2000/svg" viewBox="72 98 1109 1085" width="1109" height="1085"><g opacity= "0.7"><path fill="#433716" d="m278 262-96 90-10.276 56.128-61.064 66.936 3.936 282.148 96.021-62.723 1.468-164.681L269 443v-78l14.169-6.851L277 341zm698 1v78l-8.496 17.499L984 367v75l66.5 82.5 1.5 155.999 91 76L1151 478l-59.5-64-6-63.5z"/><path fill="#433716" d="M306 472h-2l-66 66 1 202 78-79 1-165-1-12Zm642 0-12 12v177l77 78 1-203-59-60Z"/><path fill="#f6f2e6" d="m453 98-83 67 1 73 77 72h32l1-67-48-48 21-22Zm347 0-1 74 22 23-48 47v68h33l76-74 1-71Z"/><path fill="#5243be" d="M502 826h-20l-71 67v2l42 40 1 41 42-1 50-59 19-24v-4zm249 0-64 61v4l22 23 50 59h39l1-38 43-43-71-66z"/><path fill="#f8cd29" d="M405 454v92l63.995 59.597L463 509zm440.602-9.485L790 510v92l57-57zM501 690l3 1 62 52h36l-20-16v-71h-50zm248-2-28-31h-51v70l-21 16h37l63-53zM544 917l-47 54-3 88 50-47zm165-3v99l49 45-3-83 2-7zm90 58-2 94 90-2-41-45zM504 417v87l2 2h87l-27-29-60-60zm-51 556-88 91h88zm296-555-4 2-84 84v2l81.005 7.194zm99 5-3-1-84 84h28l2 2 57-56zM488 625l62 1 25-25h98l8 3 22 22h62l-81-81H569zm10 348-46 1-1 88-86 2-43 50 38-2 26-18 3 20 38-1 26-20 2 2v23.03l41-1.03zm256-4 3 140h40l2-16 25 19 42-1 1-17 23 18 40-3-43-46-86-1-1-91zM504 690l-3 1-54 58v40l-38 38 2 66 71-65v-42l64-62zm243-1-40 33 2 4 62 60v44l68 58 1 3 2-65-37-37v-41l-54-57zM248 343l80 78h75l2 2v34.995L462 508l2-2h29l-84-84h-3l-80-79zm460 379-4 4-19 15 2 144 6-4 58-52h23l-1-45zm-162 1-67 63 2 41h21l59 58 3 2 1-144zm65-92v63l-30 1v31l46 40 46-40-1-30h-30l-2-2 1-63zm394-288h-77l-78 78h76zm-29-139 1 66.393L1073 352v62l64 64-2 266-75-74V520l-77-82-32 34 57.81 70.796-1 187.612-65.616-70.607L935 487l-54 53-1 123 191 186 2 108 56-50V794l51 31 1-363-66-68 1-66zm-698 0L139 327l-1 68-66 68 2 362 50-30v112l56 50 1-108 192-187-1-123-54-53-4.796 172.602-70.408 74.005.199-193.408 62.403-64.801L270 437l-76 84v150l-76 74-1-267 64-64v-62l94.602-83.607zm40.408 139 148.015 181.184-10.816-23.179L464 626h22l91.592-74.806 104.01 3.597L767 626h21l14.189-124.995-25.403-4.398 160.005-153.806L844 342l-69 72-30.194-1.199-12.592 89.403-217.423-3.597L505.597 414H479l-69-72zM549 336v68l56 56h42l57-57v-68zm-30-182v69.699L604 296h46l84-81v-61l-79 70-27-35-4 2-24 33zm-53 70 35 21v65l-23 1v24l75.274 71.658L549 296l-6.139 53.345 64.564-6.454L649 347.74l65.988-4.861L705 296l-10.316 115.507L775 335v-24l-22-1v-66l35-20h-52l-5.425-11.041-82.192 78.575-41.958 2.425L519 216l-2 8zm319 4-39.891 7.301-2.425 81.973L772 310v-68zm-315 1 12 14v67l25.083 6.466.808-81.357z"/><path fill="#5243be" d="M826 1110v35l40 38 1-72zm-330-2-41 2.21V1182l41-40zm261 0v34l41 40v-74zm-330 2h-40v73l4-2 36-36zm-67 0-39 1v70l40-38zm533 0v34l39 38v-72z"/><path fill="red" d="m676 298-27.015 36H704v-36zm-127 0v36h55.631L577 298z"/></g></svg>